# xmcd CD database file
#
# Track frame offsets:
#	150
#	11800
#	43227
#	77394
#	108046
#	137650
#	157271
#	175281
#	217946
#
# Disc length: 3266 seconds
#
# Revision: 1
# Processed by: cddbd v1.5.2PL0 Copyright (c) Steve Scherf et al.
# Submitted via: NeoAudio 9.9.9
#
DISCID=700cc009
DTITLE=Loreena Mckennitt - An Ancient Muse
DYEAR=2006
DGENRE=New Age
TTITLE0=01 - Incantation
TTITLE1=02 -  The Gates of Istanbul
TTITLE2=03 - Caravanserai
TTITLE3=04 -  The English Ladye and the Knight
TTITLE4=05 - Kecharitomene
TTITLE5=06 - Penelope's Song
TTITLE6=07 -  Sacred Shabbat
TTITLE7=08 -  Beneath A Phrygian Sky
TTITLE8=09 - Never-ending Road (Amhrán Duit)
EXTD=YEAR: 2006
EXTT0=
EXTT1=
EXTT2=
EXTT3=
EXTT4=
EXTT5=
EXTT6=
EXTT7=
EXTT8=
PLAYORDER=
